<svg xmlns="http://www.w3.org/2000/svg" version="1.0" width="512.000000" height="512.000000" preserveAspectRatio="xMidYMid meet" style=""><rect id="backgroundrect" width="100%" height="100%" x="0" y="0" fill="none" stroke="none"/>
<metadata>
Created by potrace 1.16, written by Peter Selinger 2001-2019
</metadata>

<g class="currentLayer" style=""><title>Layer 1</title><g transform="translate(0,512) scale(0.10000000149011612,-0.10000000149011612) " fill="#ffffff" stroke="#ffffff" id="svg_1" class="selected" stroke-opacity="1" fill-opacity="1">
<path d="M2305 5114 c-352 -48 -591 -115 -850 -238 -119 -56 -326 -183 -450 -275 -129 -96 -390 -357 -486 -486 -256 -344 -414 -710 -491 -1136 -20 -109 -22 -159 -23 -414 0 -310 6 -371 60 -601 27 -112 92 -315 126 -392 118 -266 219 -432 403 -661 45 -57 296 -301 364 -355 73 -57 257 -186 266 -186 3 0 21 -11 41 -24 50 -34 267 -140 350 -172 340 -127 594 -174 945 -174 224 0 385 17 575 61 461 106 869 328 1209 658 422 411 689 945 761 1521 17 142 20 471 5 600 -27 228 -78 434 -164 665 -32 83 -138 300 -172 350 -13 20 -24 38 -24 40 0 7 -118 181 -133 197 -7 7 -32 40 -56 73 -42 56 -294 316 -352 361 -234 187 -395 285 -661 403 -77 34 -280 99 -391 125 -213 51 -279 58 -557 61 -146 2 -278 1 -295 -1z m545 -189 c381 -46 730 -179 1065 -407 116 -78 298 -236 394 -342 68 -75 76 -85 128 -153 93 -122 123 -163 123 -169 0 -3 13 -25 29 -48 44 -64 155 -286 195 -390 57 -151 99 -304 132 -491 22 -122 30 -461 15 -606 -22 -207 -87 -473 -158 -644 -45 -108 -164 -337 -213 -409 -157 -232 -371 -459 -585 -619 l-130 -98 -5 338 c-5 306 -8 346 -28 425 -62 244 -175 449 -335 609 -85 86 -198 174 -264 208 -52 26 -69 23 -171 -35 -42 -25 -112 -56 -155 -69 -290 -92 -555 -67 -832 79 -101 54 -108 54 -194 -1 -144 -92 -278 -226 -377 -378 -68 -106 -94 -159 -137 -285 -59 -171 -67 -243 -67 -581 0 -191 -4 -299 -10 -299 -10 0 -40 21 -173 123 -68 52 -78 60 -153 128 -305 277 -558 684 -673 1084 -82 286 -112 635 -80 923 50 454 248 923 527 1252 85 100 208 224 307 309 340 294 783 488 1240 546 143 18 437 18 585 0z m-820 -3014 c70 -36 183 -75 285 -97 98 -22 378 -25 470 -5 92 19 242 69 307 102 31 16 64 29 71 29 28 0 166 -122 241 -212 121 -146 195 -298 237 -488 19 -86 21 -128 21 -439 1 -402 21 -349 -160 -428 -213 -93 -463 -159 -702 -184 -158 -16 -492 -6 -630 20 -249 46 -411 96 -611 189 -48 22 -90 46 -94 52 -13 20 -8 677 5 748 41 226 148 437 301 593 68 69 169 149 189 149 8 0 40 -13 70 -29z" id="svg_2" stroke="#ffffff" stroke-opacity="1" fill="#ffffff" fill-opacity="1"/>
<path d="M2465 4010 c-89 -10 -141 -23 -235 -62 -291 -119 -485 -379 -522 -699 -49 -436 244 -839 677 -930 443 -93 872 167 999 606 126 435 -119 901 -550 1044 -77 25 -238 54 -284 50 -8 -1 -46 -5 -85 -9z m182 -184 c177 -15 371 -135 473 -291 179 -275 150 -606 -75 -843 -351 -372 -966 -229 -1130 263 -34 102 -40 264 -12 365 56 208 203 381 391 459 78 32 210 60 261 55 17 -2 58 -6 92 -8z" id="svg_3" stroke="#ffffff" stroke-opacity="1" fill="#ffffff" fill-opacity="1"/>
</g></g></svg>